<?xml version="1.0" standalone="no"?>
<!DOCTYPE svg PUBLIC "-//W3C//DTD SVG 1.1//EN" "http://www.w3.org/Graphics/SVG/1.1/DTD/svg11.dtd" >
<svg xmlns="http://www.w3.org/2000/svg">
<metadata>
This is a custom SVG webfont generated by Font Squirrel.
Copyright   : Converted by ALLTYPE
</metadata>
<defs>
<font id="UniversLightLightRegular" horiz-adv-x="0" >
<font-face units-per-em="2048" ascent="1638" descent="-410" />
<missing-glyph horiz-adv-x="954" />
<glyph unicode=" "  horiz-adv-x="954" />
<glyph unicode="&#x09;" horiz-adv-x="954" />
<glyph unicode="&#xa0;" horiz-adv-x="954" />
<glyph unicode="!" horiz-adv-x="722" d="M270 4v176h162v-176h-162zM270 1374h162l-29 -1048h-102z" />
<glyph unicode="&#x22;" horiz-adv-x="509" d="M92 915v431h117v-431h-117zM297 915v431h117v-431h-117z" />
<glyph unicode="#" horiz-adv-x="1058" d="M41 414v121h219l29 249h-205v117h219l59 399h121l-61 -399h252l59 399h117l-59 -399h194v-117h-209l-28 -249h194v-121h-209l-59 -410h-117l59 410h-254l-59 -410h-117l60 410h-205zM377 535h254l28 249h-251z" />
<glyph unicode="$" horiz-adv-x="1058" d="M70 338l147 2q0 -90 53.5 -157.5t198.5 -78.5v490q-31 8 -66.5 19.5t-72.5 25.5q-86 37 -159 109.5t-73 212.5q0 16 2 33l4 36q23 106 113 196.5t252 100.5v94h102v-92q188 -12 279.5 -108.5t91.5 -229.5l-135 2q0 14 -3 32.5t-11 35.5q-20 57 -74.5 103t-147.5 46v-514 q188 -57 294 -128.5t106 -229.5q0 -162 -110.5 -255t-242.5 -108q-12 0 -23 -1t-24 -1v-86h-102v86q-156 12 -277.5 95.5t-121.5 269.5zM231 977q0 -102 69 -160.5t169 -93.5v489q-113 -12 -175.5 -79.5t-62.5 -155.5zM571 106q7 -1 15 -1t16 1q16 2 31 7q76 18 139.5 76.5 t63.5 148.5q0 70 -46.5 112t-99.5 66q-35 16 -66.5 26.5t-52.5 18.5v2v-457z" />
<glyph unicode="%" horiz-adv-x="1865" d="M195 961v2q0 168 72.5 244.5t158.5 97.5q20 4 40.5 6t39.5 2q23 0 47.5 -5t48.5 -14q80 -31 145.5 -109.5t65.5 -201.5v-20q-10 -180 -92 -268.5t-215 -88.5q-135 0 -223 88.5t-88 266.5zM311 961q0 -12 1 -26.5t3 -27.5q10 -80 57.5 -146.5t133.5 -66.5q90 0 130 55.5 t52 120.5q4 25 6 47.5t2 43.5v2q0 125 -49 185t-108 73q-8 2 -16.5 3t-16.5 1q-94 0 -138 -64.5t-53 -142.5q-2 -14 -3 -28.5t-1 -28.5zM477 4l735 1325h117l-735 -1325h-117zM1036 324v2q0 143 83 248.5t227 105.5q145 0 219.5 -110.5t74.5 -245.5q0 -131 -63.5 -241 t-230.5 -110q-166 0 -238 110t-72 241zM1155 324q0 -109 51 -187t140 -78q90 0 141 78t51 187v2q0 14 -2 31.5t-6 33.5q-14 76 -62.5 138.5t-121.5 62.5q-88 0 -139.5 -76.5t-51.5 -191.5z" />
<glyph unicode="&#x26;" horiz-adv-x="1359" d="M102 369q0 123 64.5 202.5t142.5 139.5l69 51q34 25 62 49v2q-53 57 -89 103.5t-58 91.5q-14 31 -21.5 61.5t-7.5 67.5q0 100 71 174.5t226 74.5q121 0 216 -55t106 -164v-20q0 -12 -1 -21.5t-3 -19.5q-16 -84 -92 -165t-169 -144l400 -412q23 43 38 99.5t23 113.5 q8 51 12.5 100.5t4.5 89.5q0 12 -1 25.5t-1 26t-1 23.5t-1 22l147 2q0 -47 -3 -96.5t-9 -98.5q-14 -119 -44 -227.5t-77 -169.5l264 -291h-176l-162 176q-12 -14 -23 -24l-24 -21q-90 -78 -182 -111.5t-199 -33.5q-29 0 -57.5 2t-57.5 6q-145 20 -266 108.5t-121 262.5z M252 375q0 -10 2 -22.5t4 -26.5q2 -4 3 -8.5t3 -8.5q29 -98 122 -151.5t204 -53.5q16 0 32.5 1t32.5 4q82 12 159 52t132 105v2l-430 457q-20 -20 -43.5 -38.5t-46.5 -41.5q-66 -55 -120 -123.5t-54 -146.5zM403 1141q0 -25 7.5 -52.5t21.5 -54.5q20 -41 50 -81t65 -68v2 q27 16 49 37l43 41q45 47 67.5 94t22.5 86v5v5q-2 25 -15.5 48.5t-35.5 35.5l-15.5 8t-15.5 6q-25 10 -47 15.5t-43 5.5q-39 0 -72.5 -16.5t-58.5 -47.5q-8 -10 -14 -25.5t-9 -33.5v-5v-5z" />
<glyph unicode="'" horiz-adv-x="509" d="M135 963l88 397h162l-147 -397h-103z" />
<glyph unicode="(" horiz-adv-x="509" d="M106 592q0 84 11.5 164t32.5 157q29 106 69.5 215t91.5 230v2h103q-20 -53 -38 -108l-34 -107q-43 -150 -66.5 -295t-23.5 -258q0 -145 37 -340t125 -424h-103l-26 64l-29 69q-27 68 -52.5 145.5t-45.5 155.5q-23 86 -37.5 170t-14.5 160z" />
<glyph unicode=")" horiz-adv-x="509" d="M61 -172q39 102 69 191.5t50 177.5q20 94 31.5 190t11.5 205q0 104 -13 197.5t-34 185.5q-23 92 -52 185l-63 198v2h88q57 -123 99.5 -231.5t68.5 -215.5q18 -78 28.5 -157.5t10.5 -163.5q0 -90 -11 -175t-32 -169q-25 -100 -62.5 -202.5t-84.5 -217.5h-105z" />
<glyph unicode="*" horiz-adv-x="1058" d="M172 979v117l264 -15l-162 219l117 60l121 -236l119 236l117 -60l-162 -219l264 15v-117l-264 14l162 -223l-117 -74l-119 267l-121 -267l-117 74l162 223z" />
<glyph unicode="+" horiz-adv-x="1228" d="M139 414v121h414v428h117v-428h415v-121h-415v-410h-117v410h-414z" />
<glyph unicode="," horiz-adv-x="509" d="M92 -217l88 397h160l-145 -397h-103z" />
<glyph unicode="-" horiz-adv-x="509" d="M4 442v121h488v-121h-488z" />
<glyph unicode="." horiz-adv-x="509" d="M166 4v176h160v-176h-160z" />
<glyph unicode="/" horiz-adv-x="509" d="M-55 -172l469 1561h135l-471 -1561h-133z" />
<glyph unicode="0" horiz-adv-x="1058" d="M84 659v50v2q0 43 4 93t12 99q27 172 121 313.5t291 141.5q231 0 324.5 -162t113.5 -356l4 -74q2 -37 2 -72q0 -322 -95 -513t-349 -191q-250 0 -333 193.5t-93 424.5q-2 26 -2 51zM217 663q0 -24 2 -47q4 -193 59.5 -352.5t233.5 -159.5q152 0 223.5 145.5t71.5 371.5 v75q-10 322 -89 426.5t-171 114.5q-8 2 -18 2h-17q-156 0 -220.5 -131t-74.5 -399v-46z" />
<glyph unicode="1" horiz-adv-x="1058" d="M201 991v119q90 43 171 97.5t126 119.5l133 2v-1325h-133v735v445q-45 -57 -121 -108.5t-176 -84.5z" />
<glyph unicode="2" horiz-adv-x="1058" d="M84 4v117q45 33 129 111l174 171l38 41l38 41q88 94 159.5 182.5t96.5 143.5q18 47 28.5 88t10.5 74q0 90 -54.5 141t-117.5 70q-25 6 -46.5 9t-42 3t-42 -4t-43.5 -12q-68 -25 -124.5 -84.5t-56.5 -149.5l-133 2v1v3v4v2q-2 4 -2 7v4q0 154 126 256t276 102 q170 0 262 -69.5t127 -151.5q12 -31 17 -59.5t5 -55.5q-2 -51 -18.5 -104t-42.5 -107q-51 -106 -134 -209.5t-171 -193.5q-80 -80 -155 -147l-128 -111l664 2v-117h-840z" />
<glyph unicode="3" horiz-adv-x="1058" d="M51 324q0 4 1 7t1 9q0 4 1 8t1 6l131 2q8 -131 76 -189t146 -71q14 -4 30.5 -5t30.5 -1q143 0 225 71.5t82 192.5q-8 127 -80.5 191.5t-208.5 64.5h-13h-13q-12 0 -25.5 -1t-27.5 -3v150l12 -4q6 -2 12 -2q2 -2 3 -2h3l24 -5q11 -2 21 -2q125 0 202 74t77 162t-47 136 t-105 71q-37 14 -70.5 20t-56.5 6q-104 0 -163.5 -47t-83.5 -102q-10 -23 -14.5 -44.5t-4.5 -39.5l-147 2q0 143 86 222t190 108q35 10 71 14t66 4q168 0 297 -99.5t129 -232.5v-16q0 -25 -3 -51.5t-11 -53.5q-20 -66 -76.5 -123t-173.5 -71q104 -29 162.5 -82t87.5 -113 q14 -35 21.5 -68.5t7.5 -62.5v-3v-3q-12 -141 -112.5 -258t-328.5 -117q-219 0 -325.5 109t-106.5 242z" />
<glyph unicode="4" horiz-adv-x="1058" d="M27 297v117l573 886h162v-886h209v-117h-209v-293h-131v293h-604zM186 414h445v725z" />
<glyph unicode="5" horiz-adv-x="1058" d="M98 309l148 2q0 -18 3 -36.5t9 -34.5q18 -57 76.5 -103.5t177.5 -46.5q133 0 214 84t81 238q0 145 -79 235t-200 90q-90 0 -167.5 -52t-100.5 -153l-131 3l29 765h721v-116h-605l-14 -459q45 53 111.5 92t156.5 39q176 0 295 -122t119 -322q0 -199 -115.5 -319 t-314.5 -120q-178 0 -291 86t-123 250z" />
<glyph unicode="6" horiz-adv-x="1058" d="M70 649q0 399 139 538.5t319 139.5q205 0 303.5 -95t108.5 -208q2 -8 2 -16v-17l-151 2q-10 96 -75 156.5t-173 60.5q-18 0 -39 -3t-41 -7q-98 -29 -180 -153.5t-82 -411.5v2q31 70 80 112t104 62q43 16 85 22.5t73 6.5q176 0 294.5 -117t118.5 -297q0 -197 -100 -325 t-344 -128q-219 0 -309 124t-117 274q-12 76 -14 148.5t-2 129.5zM231 412q0 -143 71 -232.5t226 -89.5q123 0 201 81t78 218v39q0 12 -1 26.5t-5 28.5q-14 90 -80 165t-178 75q-145 0 -228.5 -88t-83.5 -223z" />
<glyph unicode="7" horiz-adv-x="1058" d="M84 1184v116h840v-116l-502 -1180h-148l502 1180h-692z" />
<glyph unicode="8" horiz-adv-x="1058" d="M84 354q0 113 64.5 204t185.5 136v2q-100 20 -168 95t-68 200q0 176 120 264t310 88q186 0 307 -88t121 -264q0 -125 -76.5 -199.5t-177.5 -97.5q111 -33 190 -113.5t79 -226.5q0 -166 -117 -273.5t-326 -107.5q-211 0 -327.5 102.5t-116.5 278.5zM217 354 q0 -111 83 -187.5t228 -76.5q119 0 202 64.5t101 142.5q2 10 3.5 19.5t1.5 19.5v20q0 16 -2.5 35t-6.5 37q-20 78 -88.5 142.5t-210.5 64.5q-145 0 -213.5 -64.5t-89.5 -142.5q-4 -18 -6 -37t-2 -37zM231 991q0 -113 76 -175t221 -62q143 0 218 68.5t75 168.5v2 q0 109 -71.5 167.5t-157.5 72.5q-16 4 -31.5 5t-32.5 1q-12 0 -25.5 -1t-25.5 -3q-92 -10 -169 -68.5t-77 -175.5z" />
<glyph unicode="9" horiz-adv-x="1058" d="M80 928q0 2 1 6t1 10t1 10t1 7q10 176 135 286.5t293 110.5q217 0 311.5 -117t124.5 -258q16 -76 19.5 -148.5t3.5 -125.5v-54q0 -319 -125 -500.5t-334 -181.5q-221 0 -317.5 98.5t-96.5 252.5l133 2q0 -121 79 -171.5t202 -50.5q133 0 221 134.5t88 455.5v2 q-45 -84 -114.5 -124t-145.5 -50q-16 -2 -31.5 -3t-31.5 -1q-199 0 -308.5 121t-109.5 289zM231 946q0 -143 60.5 -227t206.5 -84q121 0 215 74.5t94 218.5v2q0 16 -2 34.5t-8 36.5q-20 90 -90 164t-179 74q-145 0 -221 -80t-76 -213z" />
<glyph unicode=":" horiz-adv-x="509" d="M166 4v176h160v-176h-160zM166 784v179h160v-179h-160z" />
<glyph unicode=";" horiz-adv-x="509" d="M106 -231l89 397h161l-147 -397h-103zM180 784v179h160v-179h-160z" />
<glyph unicode="&#x3c;" horiz-adv-x="1228" d="M139 414v121l946 428v-136l-770 -350l770 -371v-133z" />
<glyph unicode="=" horiz-adv-x="1228" d="M139 238v118h946v-118h-946zM139 608v117h946v-117h-946z" />
<glyph unicode="&#x3e;" horiz-adv-x="1228" d="M125 -27v148l766 356l-766 350v152l960 -444v-121z" />
<glyph unicode="?" horiz-adv-x="933" d="M186 1239v135q25 4 51.5 10.5t53.5 8.5q27 4 53.5 6t50.5 2q158 0 277 -81t119 -271q0 -104 -55.5 -183.5t-121.5 -142.5l-77 -72q-37 -35 -64 -67q-16 -25 -26.5 -47.5t-10.5 -47.5v-178h-117v224q0 35 19.5 67.5t50.5 67.5l48 47l52 49q61 57 112.5 121.5t57.5 146.5 v17q0 109 -75.5 157.5t-165.5 59.5q-12 0 -25.5 1t-25.5 1h-12h-9q-47 -2 -91 -10.5t-69 -20.5zM303 4v176h148v-176h-148z" />
<glyph unicode="@" horiz-adv-x="1484" d="M43 680q0 2 1 6t1 8v2q2 2 2 6v7q14 262 136 408.5t266 211.5q86 41 167.5 56.5t139.5 15.5h15h13q227 -10 416 -171t189 -419q-6 -186 -82 -308t-166 -186q-49 -35 -96.5 -51t-81.5 -16q-66 0 -114 25.5t-63 56.5q0 2 -1 3t-1 3q-23 -20 -51 -37.5t-59 -28t-59.5 -16.5 t-51.5 -6q-123 12 -187.5 93t-64.5 204q0 31 4 62.5t13 64.5q39 162 159.5 298t268.5 136q78 0 134 -28.5t89 -73.5l29 75h131l-160 -501q-2 -14 -9 -33l-16 -39q-2 -4 -4 -10t-4 -11q-6 -20 -11 -39.5t-5 -35.5q0 -18 12 -30.5t37 -12.5q74 0 138.5 71.5t103.5 157.5 q25 53 38 102.5t13 81.5q0 213 -132 344t-292 162q-23 6 -46.5 8t-45.5 2q-258 0 -412 -173t-174 -382q-2 -16 -3 -31.5t-1 -31.5q0 -256 170 -430t403 -174q45 0 99.5 8t111.5 27q78 27 152 78t125 135l133 2q-76 -143 -184.5 -220t-223.5 -106q-55 -14 -108 -20.5 t-105 -6.5q-301 8 -498.5 213t-197.5 494zM461 561q0 -94 32.5 -131t69.5 -45q8 0 15.5 -1t15.5 -1q16 0 32.5 5t32.5 15q51 29 100.5 96.5t82.5 149.5v2q27 53 38 101.5t11 85.5q0 74 -36 113.5t-85 39.5q-27 0 -59.5 -13t-67.5 -40q-68 -51 -125 -148.5t-57 -228.5z" />
<glyph unicode="A" horiz-adv-x="1271" d="M0 4l547 1356h145l547 -1356h-147l-146 367h-667l-132 -367h-147zM322 492h575l-279 749z" />
<glyph unicode="B" horiz-adv-x="1271" d="M176 4v1356h473q197 -2 298.5 -94t101.5 -246q0 -123 -69 -200t-171 -111q12 -2 25.5 -5.5t25.5 -7.5q92 -29 169 -102.5t77 -239.5q0 -16 -1 -32.5t-3 -30.5q-16 -109 -104.5 -199t-290.5 -90zM307 121h342h10q156 0 228 64q74 67 74 198q0 158 -114 212t-300 54l-240 2 v-530zM307 770h268h12q167 0 237 60q73 62 73 176q0 111 -63.5 172t-229.5 61l-297 2v-471z" />
<glyph unicode="C" horiz-adv-x="1271" d="M102 694.5q0 266.5 134.5 481.5t455.5 225q23 0 44.5 -1t43.5 -3q135 -16 251 -92t134 -256l-147 2q-10 98 -96 165.5t-230 67.5q-233 -10 -337.5 -183t-104.5 -407q0 -29 2 -58.5t6 -57.5q23 -178 124 -326t310 -148q154 0 230.5 57.5t109.5 176.5l148 2 q-33 -156 -143.5 -253t-344.5 -97q-309 0 -449.5 219t-140.5 485.5z" />
<glyph unicode="D" horiz-adv-x="1359" d="M162 4v1356h442q344 -2 489.5 -217t145.5 -494q-12 -309 -184 -478t-451 -169zM293 121h311h6q197 0 345 135q151 137 151 416v39q0 254 -151.5 391t-438.5 137l-223 2v-1120z" />
<glyph unicode="E" horiz-adv-x="1146" d="M186 4v1356h813v-119h-680v-485h652v-119h-652v-516h711v-117h-844z" />
<glyph unicode="F" horiz-adv-x="1058" d="M172 4v1356h770v-119h-639v-485h606v-119h-606v-633h-131z" />
<glyph unicode="G" horiz-adv-x="1359" d="M102 680q0 55 8.5 116.5t28.5 125.5q49 168 180.5 309t372.5 141q201 0 332 -99t141 -253l-147 2q-14 90 -76.5 142.5t-134.5 74.5q-31 8 -59.5 12t-55.5 4q-211 0 -326.5 -165.5t-115.5 -409.5q0 -313 122 -436t267 -146q25 -4 49.5 -6t48.5 -2q33 0 74 3t82 9.5 t82 17.5t74 27v433h-342v116h473v-635q-49 -29 -105.5 -45t-116.5 -26q-57 -8 -114.5 -12.5t-106.5 -4.5q-299 0 -467 199t-168 508z" />
<glyph unicode="H" horiz-adv-x="1359" d="M176 4v1356h131v-590h725v590h133v-1356h-133v647h-725v-647h-131z" />
<glyph unicode="I" horiz-adv-x="509" d="M180 4v1356h131v-1356h-131z" />
<glyph unicode="J" horiz-adv-x="933" d="M27 338l131 2q23 -111 78 -173.5t186 -62.5q102 0 162.5 70t60.5 223v963h131v-961q0 -201 -95 -305t-319 -104q-154 0 -244.5 102.5t-90.5 245.5z" />
<glyph unicode="K" horiz-adv-x="1146" d="M186 4v1356h133v-590l590 590h164l-622 -621l682 -735h-177l-637 678v-678h-133z" />
<glyph unicode="L" horiz-adv-x="1058" d="M172 4v1356h131v-1239h682v-117h-813z" />
<glyph unicode="M" horiz-adv-x="1740" d="M147 4v1356h205l502 -1180l502 1180h209v-1356h-133v1223l-502 -1223h-150l-501 1223v-1223h-132z" />
<glyph unicode="N" horiz-adv-x="1359" d="M162 4v1356h145l756 -1180v1180h131v-1356h-162l-739 1165v-1165h-131z" />
<glyph unicode="O" horiz-adv-x="1484" d="M121 694v2q0 297 147.5 501t456.5 204q281 0 434.5 -194.5t179.5 -426.5q4 -27 5.5 -51t1.5 -49v-12v-11q-6 -252 -150.5 -459.5t-470.5 -207.5q-332 0 -463 202.5t-141 501.5zM250 717q0 -4 2 -8v-9v-6v2q0 -246 114.5 -419t358.5 -173t358.5 160t114.5 416 q0 244 -120 424t-353 180q-197 0 -318.5 -145.5t-148.5 -321.5q-4 -23 -6 -47.5t-2 -46.5v-6z" />
<glyph unicode="P" horiz-adv-x="1146" d="M172 4v1356h428q2 -2 3 -2h3q174 -2 320.5 -88t146.5 -293q0 -211 -149.5 -298t-337.5 -87l-283 2v-590h-131zM303 711h283h10q147 0 245 59q101 61 101 207q0 133 -81 197.5t-245 64.5l-313 2v-530z" />
<glyph unicode="Q" horiz-adv-x="1484" d="M121 694v2q0 287 157.5 489t446.5 201.5t448.5 -185.5t172.5 -507q0 -178 -54.5 -309t-117.5 -207q-20 -25 -40 -43t-38 -31q88 10 157.5 12.5t135.5 2.5v-115h-265q-29 -2 -54.5 -1t-45.5 1q-23 0 -40 1t-32 1h-27q-13 0 -24 -4q-4 -2 -7 -2h-7q-31 -10 -70 -18.5 t-78 -8.5q-352 0 -485 221t-133 500zM252 694v2q12 -281 138 -443.5t349 -162.5q213 0 336 169t123 435.5t-136 421t-337 154.5q-244 -10 -352.5 -186.5t-120.5 -389.5z" />
<glyph unicode="R" horiz-adv-x="1271" d="M190 4v1342h517q190 -2 280 -103.5t90 -222.5q0 -145 -55 -211t-168 -100q51 -6 77.5 -21.5t43.5 -32.5q4 -6 9 -11t9 -11q2 -4 5 -7l6 -5q35 -39 46 -127t19 -187v-8v-8q6 -88 16.5 -168t34.5 -121l-131 2q-29 33 -38 100.5t-15 145.5q0 14 -1 29.5t-3 31.5 q-10 127 -47 232.5t-164 105.5l-399 2v-647h-132zM322 770h327h9q127 0 206 54q82 56 82 182q0 121 -73.5 177t-239.5 56l-311 2v-471z" />
<glyph unicode="S" horiz-adv-x="1146" d="M98 369l133 2q10 -123 86 -202t211 -79q186 0 271.5 76t87.5 166v3v3q0 10 -1 19.5t-3 17.5q-10 63 -53.5 120.5t-110.5 82.5l-50 16l-53 16q-16 6 -31.5 10.5t-31.5 10.5q-158 49 -291 133t-133 285q0 133 116.5 242.5t297.5 109.5q186 0 316 -84t140 -238l-135 2 q0 76 -84 139.5t-237 63.5q-123 -6 -196 -77.5t-79 -155.5v-5v-8q0 -8 1 -18t3 -19q10 -49 47 -96t103 -80q37 -18 75 -32l74 -29l45.5 -15.5t42.5 -15.5q147 -49 259 -119.5t112 -244.5q0 -227 -151.5 -309.5t-331.5 -86.5h-10h-9q-180 0 -293.5 93.5t-136.5 302.5z" />
<glyph unicode="T" horiz-adv-x="1058" d="M10 1241v105h1006v-105h-445v-1237h-135v1237h-426z" />
<glyph unicode="U" horiz-adv-x="1359" d="M176 504v856h131v-854q0 -213 110.5 -314.5t274.5 -101.5t260.5 106.5t96.5 307.5v856h131v-854q0 -225 -104.5 -379t-383 -154t-397.5 149t-119 382z" />
<glyph unicode="V" horiz-adv-x="1146" d="M-4 1360h147l443 -1225l413 1225h134l-474 -1356h-147z" />
<glyph unicode="W" horiz-adv-x="1865" d="M-10 1360h131l321 -1210l385 1210h166l414 -1210l293 1210h131l-336 -1356h-180l-414 1223l-366 -1223h-179z" />
<glyph unicode="X" horiz-adv-x="1146" d="M10 4l473 707l-456 649h174l370 -561l385 561h146l-457 -649l473 -707h-147l-414 604l-399 -604h-148z" />
<glyph unicode="Y" horiz-adv-x="1146" d="M10 1360h162l399 -635l400 635h147l-487 -752v-604h-133v590z" />
<glyph unicode="Z" horiz-adv-x="1058" d="M55 1257v103h901v-103l-739 -1136h739v-117h-886v117l737 1136h-752z" />
<glyph unicode="[" horiz-adv-x="509" d="M135 -172v1546h264v-102h-131v-1342h131v-102h-264z" />
<glyph unicode="\" horiz-adv-x="509" d="M-113 1360h131l590 -1356h-131z" />
<glyph unicode="]" horiz-adv-x="509" d="M92 -70h131v1342h-131v102h264v-1546h-264v102z" />
<glyph unicode="^" horiz-adv-x="954" />
<glyph unicode="_" horiz-adv-x="933" d="M-4 -98h946v-119h-946v119z" />
<glyph unicode="`" horiz-adv-x="509" d="M106 979l146 395h104l-88 -395h-162z" />
<glyph unicode="a" horiz-adv-x="933" d="M70 266q10 201 159.5 256.5t458.5 55.5v3v3q0 106 -31.5 196t-173.5 90q-113 0 -175 -42t-62 -119l-133 2q0 133 107.5 196.5t236.5 69.5h13h13q133 0 228.5 -69.5t95.5 -258.5q0 -330 1 -441.5t9 -178.5q2 -6 3 -13.5t1 -13.5l-119 2q-2 2 -2 4q-8 41 -10 76l-2 35 q-27 -47 -75 -79t-101 -46q-33 -10 -63.5 -15.5t-57.5 -5.5q-164 0 -242.5 91t-78.5 202zM201 266q0 -96 63.5 -143t143.5 -47q12 0 24 1t27 3q35 6 67.5 19.5t59.5 33.5q47 35 74.5 102.5t27.5 172.5v69q-8 -2 -16 -2h-17q-170 0 -312 -29.5t-142 -179.5z" />
<glyph unicode="b" horiz-adv-x="1058" d="M98 4q10 141 12.5 209t2.5 111v1036h133v-533q29 43 67.5 73t81.5 46q41 16 81 23.5t67 7.5l20 2q145 -2 265 -123t128 -352q0 -205 -99 -368t-267 -163h-19q-113 0 -202.5 42t-122.5 118q0 -10 -2 -46t-11 -77q0 -2 -1 -4t-1 -4zM231 489q0 -180 86 -296.5t254 -116.5 q133 0 191.5 118.5t58.5 309.5v2q0 29 -5 68.5t-17 82.5q-25 80 -83.5 146.5t-172.5 66.5q-135 0 -223.5 -108.5t-88.5 -272.5z" />
<glyph unicode="c" horiz-adv-x="933" d="M84 489q0 188 76 294t168 151q45 23 90 33t80 10l22 2q125 -2 224.5 -87t115.5 -187q2 -10 3 -19.5t1 -17.5v-17h-131q0 98 -62.5 158.5t-172.5 60.5q-131 0 -198 -85t-89 -185q-4 -29 -7 -56.5t-3 -54.5q0 -23 1 -44t3 -44q12 -117 72.5 -217t220.5 -108 q90 0 162.5 62.5t72.5 170.5l131 2q-10 -166 -105 -252t-261 -86q-168 0 -291 118.5t-123 397.5z" />
<glyph unicode="d" horiz-adv-x="1058" d="M70 504q0 195 71.5 296t157.5 142q41 18 81 26.5t71 8.5q135 0 206.5 -43t104.5 -109v535h131v-1034q0 -57 2 -136t14 -188l-133 2q-2 6 -4 14.5t-2 16.5q-6 37 -7 67l-1 31q-31 -63 -107.5 -110.5t-160.5 -49.5h-7h-4h-24q-193 0 -280 136.5t-105 300.5q-2 25 -3 48 t-1 46zM201 504v2q0 -203 68.5 -309.5t213.5 -106.5q154 0 223.5 123t69.5 291q0 164 -93 265t-214 101q-135 -10 -193.5 -100t-70.5 -197q-2 -18 -3 -35.5t-1 -33.5z" />
<glyph unicode="e" horiz-adv-x="1058" d="M84 461v28q0 219 130 360.5t298 141.5q215 0 316.5 -141t111.5 -311q2 -10 2 -22v-21v-37h-725q0 -33 5 -67t16 -68q27 -90 91 -164t177 -74q2 0 5 1t7 1q2 0 5 1t5 1q106 6 163 48t81 89q14 27 22.5 51.5t12.5 45.5v2h135q-47 -188 -153.5 -262t-260.5 -74 q-236 0 -333 138t-109 304q-2 15 -2 29zM217 561l590 2v27q0 113 -66.5 182.5t-146.5 89.5q-16 4 -32.5 6t-33.5 2q-27 0 -61.5 -4t-71.5 -20q-53 -25 -102 -88.5t-76 -196.5z" />
<glyph unicode="f" horiz-adv-x="634" d="M23 842v106h190v207q0 127 66.5 175t146.5 48q10 0 20.5 -1t20.5 -1l47 -8q23 -4 39 -10v-101q-10 2 -22.5 6.5t-24.5 6.5q-10 2 -21.5 3t-19.5 1q-55 0 -95 -39t-40 -127v-160h223v-106h-223v-838h-117v838h-190z" />
<glyph unicode="g" horiz-adv-x="1058" d="M70 475v26q0 13 2 25q8 164 96 301.5t315 149.5q96 0 165 -36t132 -116q2 -4 5 -7t6 -7l2 39q2 39 14 96v2h117q0 -23 -2 -57l-4 -72v-6q0 -4 -3 -6q-2 -41 -4 -76t-2 -51v-602q0 -166 -73.5 -298t-337.5 -143q-170 0 -271.5 72t-101.5 174q0 2 1 4t1 4q0 4 1 6.5t1 4.5 h117q10 -90 80.5 -126t171.5 -36q111 0 174 49t92 107q14 31 20.5 58.5t6.5 47.5v164q-53 -80 -125 -122t-183 -42q-199 0 -301 141.5t-112 331.5zM201 489q0 -145 85 -265t197 -120q125 0 216.5 94.5t91.5 268.5v39q0 152 -86.5 258t-206.5 106q-123 0 -191.5 -85 t-93.5 -185q-6 -29 -9 -56.5t-3 -54.5z" />
<glyph unicode="h" horiz-adv-x="1058" d="M143 4v1356h117v-561q23 76 94.5 127t216.5 51q143 0 232.5 -91t89.5 -280v-602h-117v559q0 18 -1 39t-5 41q-12 86 -65.5 156.5t-176.5 70.5q-135 0 -197.5 -94t-68.5 -207q-2 -10 -2 -19v-18v-528h-117z" />
<glyph unicode="i" horiz-adv-x="430" d="M125 1212v148h145v-148h-145zM139 4v944h117v-944h-117z" />
<glyph unicode="j" horiz-adv-x="430" d="M-8 -246q100 0 116.5 23.5t16.5 124.5v1028h117v-1077q0 -98 -33 -156.5t-172 -58.5h-45v116zM111 1212v148h145v-148h-145z" />
<glyph unicode="k" horiz-adv-x="933" d="M158 4v1356h116v-797l445 385h145l-473 -413l518 -531h-147l-488 502v-502h-116z" />
<glyph unicode="l" horiz-adv-x="430" d="M139 4v1356h117v-1356h-117z" />
<glyph unicode="m" horiz-adv-x="1652" d="M102 946l117 2q10 -59 12 -98l2 -39v2q8 8 15.5 17.5t17.5 19.5q43 47 106.5 87t157.5 40q29 0 66 -4t76 -21q47 -18 92 -61t76 -123q33 68 85 112t109 68q35 14 69 21.5t62 7.5q178 0 259 -97.5t81 -230.5v-645h-121v619q0 16 -2 35.5t-8 39.5q-18 63 -73.5 117.5 t-163.5 54.5q-20 0 -44 -5t-49 -15q-66 -27 -121 -97.5t-55 -191.5v-557h-116v619q0 92 -67 169.5t-175 77.5l-23 2q-113 -12 -177 -98t-74 -188q0 -10 -1.5 -19.5t-1.5 -19.5v-543h-116v721v18v19q0 27 -3.5 63.5z" />
<glyph unicode="n" horiz-adv-x="1058" d="M129 946l117 2q10 -59 12 -98l2 -39v2q8 8 15.5 17.5t17.5 19.5q43 47 106.5 87t157.5 40q27 0 68 -9.5t86 -31.5q68 -33 125 -98.5t57 -171.5v-662h-117v619q0 92 -65.5 169.5t-175.5 77.5l-23 2q-113 -12 -176.5 -98t-73.5 -188q0 -10 -1 -19.5t-1 -19.5v-543h-117v721 v18v19q0 27 -3 63.5t-11 120.5z" />
<glyph unicode="o" horiz-adv-x="1058" d="M70 489v3q0 207 114.5 353t313 146t321.5 -141t123 -361q0 -223 -121 -369.5t-309 -146.5t-315 146.5t-127 369.5zM186 489v3q10 -170 96.5 -293t229.5 -123t226 129t83 284v4v3q-2 145 -87 267t-218 122l-18 2q-145 -12 -228.5 -128t-83.5 -270z" />
<glyph unicode="p" horiz-adv-x="1058" d="M98 977l119 2q4 -14 6 -28l4 -27q2 -31 3 -58l1 -26l20 22l19 21q53 53 117 73.5t170 20.5q199 0 292 -128t93 -317q0 -233 -88 -396t-297 -163q-113 0 -192.5 49.5t-133.5 124.5v-495h-118v1073v63q0 29 -2 56q0 31 -3.5 61.5t-9.5 71.5zM231 475v2q0 -27 3.5 -52.5 t7.5 -49.5q23 -106 94.5 -195.5t206.5 -89.5q147 0 207.5 110.5t68.5 243.5q2 14 2 30v30q0 16 -1 32.5t-3 32.5q-12 119 -75.5 217.5t-198.5 98.5q-168 0 -233.5 -107.5t-76.5 -234.5q0 -18 -1 -35t-1 -33z" />
<glyph unicode="q" horiz-adv-x="1058" d="M80 471q0 4 1 10t1 13v2v2q2 6 2 11v9q0 176 92 317.5t293 141.5q88 0 167 -23.5t155 -113.5l1 36q1 36 9 78q2 4 3 10.5t3 12.5v2h117l-4 -32l-5 -32q-4 -53 -5 -107t-1 -114v-1042h-118v514q-33 -66 -86.5 -107t-108.5 -61q-33 -12 -65.5 -18.5t-61.5 -6.5 q-188 0 -288.5 146.5t-100.5 351.5zM201 474q0 -15 2 -30q8 -133 68.5 -243.5t211.5 -110.5q156 0 228.5 116t79.5 255v15v13v3v17q0 9 -3 17q-8 135 -77.5 247t-212.5 112q-156 0 -226.5 -108.5t-70.5 -272.5v-30z" />
<glyph unicode="r" horiz-adv-x="634" d="M125 946v2h117q6 -20 9 -35.5t3 -29.5q2 -14 2 -28v-30q35 104 103.5 128t156.5 24l66 2v-107q-4 -2 -8 -2h-7q-4 0 -7 1t-7 1q-6 0 -12 1t-13 1q-113 0 -192.5 -74.5t-79.5 -193.5v-602h-117v780v34q0 17 -2 34q0 23 -3 45t-9 49z" />
<glyph unicode="s" horiz-adv-x="933" d="M84 281l117 2q12 -102 86.5 -147.5t163.5 -45.5q113 0 190.5 45t77.5 146q0 92 -82 126.5t-186 59.5q-8 2 -17.5 3t-17.5 5q-113 25 -208 73t-95 175q0 100 81.5 177t256.5 77q145 0 252.5 -48t117.5 -192l-133 2q-10 63 -72.5 104.5t-164.5 41.5q-100 0 -143.5 -32 t-55.5 -69q-4 -12 -5 -24t-1 -23q0 -70 68.5 -99.5t160.5 -51.5q18 -6 37 -11l37 -8q113 -29 207 -84t94 -188q0 -154 -121 -238t-278 -84q-25 0 -52.5 3.5l-56.5 7.5q-92 18 -171 86t-87 211z" />
<glyph unicode="t" horiz-adv-x="634" d="M23 842v106h190v191l117 45v-236h223v-106h-223v-619q0 -84 34.5 -117.5t90.5 -33.5q16 0 36.5 3t43.5 9q4 0 7 1t5 1q6 0 11 2t9 2v-100l-16 -4q-8 -2 -16 -2q-27 -6 -53.5 -8.5t-49.5 -2.5q-109 0 -164 55.5t-55 149.5v664h-190z" />
<glyph unicode="u" horiz-adv-x="1058" d="M143 338v592h117v-545q0 -156 57.5 -227.5t180.5 -81.5q2 0 4 -1t6 -1q2 0 4 -1t4 -1q115 0 187.5 104.5t72.5 249.5v504h117v-692q0 -45 2 -107.5t14 -128.5l-118 2q-2 6 -4.5 14.5t-2.5 16.5q-6 37 -7 67l-1 31q-43 -76 -101.5 -118t-191.5 -42q-188 0 -264 100.5 t-76 264.5z" />
<glyph unicode="v" horiz-adv-x="933" d="M27 948h131l325 -768l293 768h133l-366 -944h-135z" />
<glyph unicode="w" horiz-adv-x="1572" d="M18 948h132l278 -782l283 782h147l266 -782l265 782h135l-340 -944h-117l-283 809l-292 -809h-121z" />
<glyph unicode="x" horiz-adv-x="933" d="M41 4l350 455l-336 489h162l252 -385l279 385h145l-350 -471l350 -473h-145l-279 381l-297 -381h-131z" />
<glyph unicode="y" horiz-adv-x="933" d="M-4 948h147l326 -768l307 768h133l-532 -1296h-131l145 366z" />
<glyph unicode="z" horiz-adv-x="847" d="M84 4v117l547 706h-547v121h692v-121l-545 -706h545v-117h-692z" />
<glyph unicode="{" horiz-adv-x="509" d="M61 532v119q100 10 117 61.5t17 127.5v256q0 174 66.5 218t199.5 44v-101q-57 -2 -96 -22.5t-39 -97.5v-279q0 -113 -19.5 -173t-97.5 -93q78 -33 97.5 -98.5t19.5 -155.5v-217q0 -90 13 -140.5t89 -50.5h33v-102h-10q-6 0 -11 -2h-6h-4q-8 0 -16 -1t-15 -1 q-135 0 -169.5 82t-34.5 198v252v21q0 12 -2 24q-2 45 -27 84t-105 47z" />
<glyph unicode="|" horiz-adv-x="430" d="M139 4v1356h117v-1356h-117z" />
<glyph unicode="}" horiz-adv-x="509" d="M33 1239v121q154 -2 209 -44t55 -163v-266q0 -123 35 -180.5t110 -57.5v-114q-76 -2 -110.5 -60.5t-34.5 -136.5v-320q0 -88 -62.5 -139t-164.5 -51h-37v117h28q76 0 90.5 40t14.5 91v235v7v10q2 82 29.5 156.5t101.5 107.5v2q-61 33 -90 90t-37 121q-2 16 -3 32.5 t-1 32.5v254q0 53 -22.5 84t-110.5 31z" />
<glyph unicode="~" horiz-adv-x="954" />
<glyph unicode="&#xa1;" horiz-adv-x="954" />
<glyph unicode="&#xa2;" horiz-adv-x="933" d="M129 -27q0 109 55.5 192t122.5 146l116 113q54 51 60 98v5v5v179h117v-219q0 -10 -1 -18.5t-5 -18.5q-14 -47 -65 -97l-105 -102q-68 -61 -123 -131t-55 -152q0 -115 92 -167t209 -52q16 0 33.5 1t35.5 3q31 4 61 10.5t56 14.5v-117q-39 -14 -80 -21t-84 -10 q-10 -2 -20 -2h-21q-152 0 -275.5 81t-123.5 259zM469 842v180h147v-180h-147z" />
<glyph unicode="&#xa3;" horiz-adv-x="1058" d="M217 150l174 370l-174 367h102l209 -367l-209 -370h-102zM543 150l176 370l-176 367h102l205 -367l-205 -370h-102z" />
<glyph unicode="&#xa4;" horiz-adv-x="509" d="M92 915v431h117v-431h-117zM297 915v431h117v-431h-117z" />
<glyph unicode="&#xa5;" horiz-adv-x="954" />
<glyph unicode="&#xa6;" />
<glyph unicode="&#xa7;" horiz-adv-x="954" />
<glyph unicode="&#xa8;" />
<glyph unicode="&#xa9;" horiz-adv-x="1058" d="M47 569q0 14 1 28.5t3 29.5q8 63 31.5 123.5t60.5 105.5l-73 74l102 106l74 -73q59 43 136 66.5t157 23.5q16 0 32.5 -1t32.5 -3q59 -8 115.5 -30t101.5 -58l72 75l106 -106l-75 -72q25 -39 43 -79t28 -81q8 -31 12.5 -61.5t4.5 -58.5q0 -80 -28 -155t-75 -128l76 -72 l-106 -102l-72 74q-49 -47 -110.5 -74t-125.5 -33q-12 0 -22 -1t-21 -1h-17q-9 0 -17 2q-68 6 -133.5 33.5t-114.5 71.5l-74 -72l-102 102l73 74q-35 39 -57.5 91t-32.5 106l-4 37q-2 20 -2 38zM186 578q0 -145 98.5 -243.5t243.5 -98.5q154 0 240 93t96 249v2 q0 131 -96 225t-239.5 94t-242 -98.5t-100.5 -216.5v-3v-3z" />
<glyph unicode="&#xaa;" horiz-adv-x="1058" d="M55 18l131 132q-43 43 -72.5 133t-29.5 192q0 219 122 352.5t322 133.5q127 0 190.5 -36t98.5 -79q0 -2 1 -3l3 -3l121 139l57 -64l-120 -116q47 -57 76.5 -141.5t29.5 -182.5q-8 -258 -118.5 -363.5t-241.5 -127.5q-31 -6 -64 -8.5t-63 -2.5q-90 0 -151.5 31t-115.5 86 l-118 -131zM217 475q0 -18 2 -37l4 -37q8 -45 22.5 -86t28.5 -65l474 506q-33 41 -82.5 70.5t-137.5 29.5h-11h-11q-109 -10 -199 -107.5t-90 -273.5zM303 180q6 -8 12.5 -14t14.5 -12q33 -29 77 -53.5t91 -24.5q23 0 45 3t45 7q94 25 174 113t88 276q0 23 -3 51.5t-11 59.5 q-6 31 -17.5 58.5t-27.5 49.5z" />
<glyph unicode="&#xab;" horiz-adv-x="1146" d="M143 4v926q0 20 1 42.5t3 45.5q16 137 98.5 252.5t282.5 115.5q143 0 254 -67.5t111 -210.5q0 -61 -37 -112.5t-80 -94.5l-80 -85q-37 -40 -37 -79q0 -25 19.5 -46t50.5 -42q29 -20 64.5 -39.5t72.5 -42.5q78 -47 142.5 -111.5t64.5 -164.5v-8q-10 -168 -107.5 -239 t-217.5 -71q-164 0 -234 88.5t-92 219.5l135 2q10 -90 56 -141.5t134.5 -51.5t141.5 51.5t53 139.5q0 76 -61.5 126t-137.5 93q-2 2 -4 3t-4 3q-78 45 -142.5 97t-64.5 134q0 57 34 105.5t77 91.5l47 49q23 25 39 49q10 16 16.5 32.5t6.5 33.5v12q0 63 -49.5 111.5 t-170.5 48.5q-125 0 -196.5 -103.5t-71.5 -326.5v-836h-117z" />
<glyph unicode="&#xac;" />
<glyph unicode="&#xad;" />
<glyph unicode="&#xae;" horiz-adv-x="509" d="M135 963l88 397h162l-147 -397h-103z" />
<glyph unicode="&#xaf;" />
<glyph unicode="&#xb0;" />
<glyph unicode="&#xb1;" />
<glyph unicode="&#xb2;" />
<glyph unicode="&#xb3;" />
<glyph unicode="&#xb4;" />
<glyph unicode="&#xb5;" />
<glyph unicode="&#xb6;" />
<glyph unicode="&#xb7;" />
<glyph unicode="&#xb8;" />
<glyph unicode="&#xb9;" />
<glyph unicode="&#xba;" horiz-adv-x="954" />
<glyph unicode="&#xbb;" />
<glyph unicode="&#xbc;" />
<glyph unicode="&#xbd;" />
<glyph unicode="&#xbe;" />
<glyph unicode="&#xbf;" horiz-adv-x="954" />
<glyph unicode="&#xc0;" horiz-adv-x="722" d="M270 -334l31 1045h117l28 -1045h-176zM270 842v180h162v-180h-162z" />
<glyph unicode="&#xc1;" />
<glyph unicode="&#xc2;" horiz-adv-x="1058" d="M143 489q0 231 111 348t244 138q14 2 29.5 3t29.5 1h12h15h1h3q8 -2 15 -2h13l58 235h102l-74 -264q78 -18 128.5 -74.5t72.5 -119.5q10 -27 15.5 -53.5t5.5 -51.5l-133 2q0 55 -24 94t-52 60q-10 6 -21.5 12t-19.5 8l-205 -719q8 -4 17.5 -5t17.5 -3q8 0 17 -1t18 -1 q102 0 172.5 56.5t79.5 156.5l133 2q-8 -158 -125 -246t-256 -88q-12 0 -25.5 1.5t-28.5 1.5l-27 4q-13 2 -26 6l-59 -221h-103l74 264q-88 43 -146.5 159.5t-58.5 296.5zM260 489q0 -135 31 -210.5t86 -131.5l209 711q-6 -2 -14.5 -1t-16.5 1h-12h-13q-115 0 -183 -97 t-83 -214q-2 -14 -3 -29t-1 -29z" />
<glyph unicode="&#xc3;" horiz-adv-x="1865" d="M-10 4l794 1370h945v-117h-736l74 -487h633v-119h-604l88 -530h561v-117h-678l-59 367h-652l-221 -367h-145zM414 492h579l-135 749z" />
<glyph unicode="&#xc4;" />
<glyph unicode="&#xc5;" horiz-adv-x="954" />
<glyph unicode="&#xc6;" />
<glyph unicode="&#xc7;" horiz-adv-x="933" d="M129 694v2q0 152 109.5 252.5t244.5 100.5q133 0 235.5 -98.5t102.5 -242t-92 -249t-246 -105.5q-156 0 -250 104.5t-104 235.5z" />
<glyph unicode="&#xc8;" horiz-adv-x="1058" d="M84 696v117h133v74q0 203 79 296t173 122q39 14 77 18t70 4l33 2q156 -2 239 -70.5t103 -150.5q4 -14 6 -29.5t2 -29.5l-135 2q0 63 -63.5 111t-184.5 48q-20 0 -43.5 -4t-48.5 -12q-66 -27 -121 -95.5t-55 -199.5v-86h311v-117h-311v-575h608v-117h-858v117h119v575 h-133z" />
<glyph unicode="&#xc9;" />
<glyph unicode="&#xca;" horiz-adv-x="954" />
<glyph unicode="&#xcb;" horiz-adv-x="1058" d="M-4 1315h162l385 -590l366 590h150l-459 -707h371v-116h-371v-107h371v-117h-371v-264h-131v264h-385v117h385v107h-385v116h367z" />
<glyph unicode="&#xcc;" />
<glyph unicode="&#xcd;" />
<glyph unicode="&#xce;" horiz-adv-x="954" />
<glyph unicode="&#xcf;" horiz-adv-x="1058" d="M201 649q0 16 3 33.5t11 34.5q18 51 64.5 100t111.5 82l-25 17q-13 9 -28 18q-45 33 -83 80t-38 123q0 90 56.5 152.5t134.5 82.5q23 6 53.5 9t60.5 5h16h15h15h16q55 -2 105 -10t73 -18v-117q-27 6 -53.5 13.5t-53.5 13.5l-33 4q-17 2 -36 2h-35q-18 0 -39 -4 q-78 -10 -121 -49t-43 -84q4 -61 63.5 -98.5t135.5 -67.5q8 -4 18 -7t19 -8q90 -37 163.5 -87t73.5 -146q0 -63 -33.5 -102t-74.5 -66l-44.5 -26.5t-37.5 -24.5l38 -24q22 -13 42 -27q47 -33 86 -83.5t39 -133.5q0 -102 -71 -166t-155 -90q-35 -10 -66.5 -15.5t-60.5 -5.5 q-80 0 -146.5 11.5t-119.5 31.5v133q4 -4 8 -6l8 -4q61 -27 119 -38t99 -11q96 0 155.5 38t81.5 83q8 14 11 27.5t3 25.5q0 61 -58 94t-138 59q-12 6 -26.5 10.5t-28.5 10.5q-90 31 -167 79t-83 146zM334 694q0 -51 46 -86t126 -67q6 -2 11 -4t11 -5v3q10 12 26.5 24 t35.5 23q2 2 5 4t5 4q33 20 60.5 46t27.5 73q0 31 -22.5 50t-57.5 38l-59 26q-33 14 -66 33q-80 -33 -114.5 -75t-34.5 -87z" />
<glyph unicode="&#xd0;" />
<glyph unicode="&#xd1;" horiz-adv-x="1228" d="M111 1020q0 16 1 32.5t5 30.5q20 109 109 199t253 90l488 2v-1648h-136v1531h-219v-1531h-133v911h-5q-152 0 -257 113q-106 114 -106 270z" />
<glyph unicode="&#xd2;" horiz-adv-x="954" />
<glyph unicode="&#xd3;" />
<glyph unicode="&#xd4;" />
<glyph unicode="&#xd5;" horiz-adv-x="1484" d="M92 18l160 191q-53 76 -92 182.5t-39 274.5q0 354 164 537t440 183q29 0 59.5 -2t61.5 -6q84 -10 164 -45t145 -108l145 178l74 -57l-162 -191l31 -49q14 -23 25 -45q45 -84 61.5 -175t16.5 -220q-12 -365 -194.5 -536t-426.5 -171q-154 0 -251 54.5t-163 119.5 l-145 -174zM252 666q0 -100 22.5 -189.5t65.5 -167.5l711 815q-59 76 -134 108t-153 36q-10 2 -20 2h-19h-8h-10q-170 -8 -312.5 -165.5t-142.5 -438.5zM399 238q59 -68 138 -108t188 -40q201 0 332 132t141 444q0 35 -6 98t-25 131q-10 37 -24.5 73t-32.5 66z" />
<glyph unicode="&#xd6;" />
<glyph unicode="&#xd7;" />
<glyph unicode="&#xd8;" />
<glyph unicode="&#xd9;" horiz-adv-x="954" />
<glyph unicode="&#xda;" />
<glyph unicode="&#xdb;" horiz-adv-x="954" />
<glyph unicode="&#xdc;" />
<glyph unicode="&#xdd;" />
<glyph unicode="&#xde;" />
<glyph unicode="&#xdf;" />
<glyph unicode="&#xe0;" horiz-adv-x="598" d="M4 1169v177h162v-177h-162zM326 1169v177h166v-177h-166z" />
<glyph unicode="&#xe1;" horiz-adv-x="954" />
<glyph unicode="&#xe2;" />
<glyph unicode="&#xe3;" />
<glyph unicode="&#xe4;" />
<glyph unicode="&#xe5;" />
<glyph unicode="&#xe6;" />
<glyph unicode="&#xe7;" />
<glyph unicode="&#xe8;" />
<glyph unicode="&#xe9;" horiz-adv-x="954" />
<glyph unicode="&#xea;" horiz-adv-x="954" />
<glyph unicode="&#xeb;" horiz-adv-x="954" />
<glyph unicode="&#xec;" />
<glyph unicode="&#xed;" />
<glyph unicode="&#xee;" />
<glyph unicode="&#xef;" />
<glyph unicode="&#xf0;" />
<glyph unicode="&#xf1;" horiz-adv-x="954" />
<glyph unicode="&#xf2;" horiz-adv-x="954" />
<glyph unicode="&#xf3;" horiz-adv-x="954" />
<glyph unicode="&#xf4;" horiz-adv-x="634" d="M139 1051l176 278h181l-254 -278h-103z" />
<glyph unicode="&#xf5;" horiz-adv-x="954" />
<glyph unicode="&#xf6;" horiz-adv-x="954" />
<glyph unicode="&#xf7;" />
<glyph unicode="&#xf8;" />
<glyph unicode="&#xf9;" horiz-adv-x="509" d="M47 -289l14 58q51 -25 97.5 -36.5t79.5 -11.5q25 0 45 5.5t28 13.5q6 4 10.5 12t6.5 17q0 2 1 6t1 8v7q0 3 -2 7q-6 18 -32 35.5t-73 17.5q-6 0 -12 -1t-14 -3q-4 0 -9.5 -1t-9.5 -3h-5h-7l57 176h60l-31 -116h8q4 0 8 2h4h4q6 2 12.5 3t12.5 1q63 0 101 -35t38 -78 q0 -6 -1 -13t-1 -15q-2 -6 -4 -13.5t-6 -13.5q-14 -35 -66.5 -54.5t-115.5 -19.5q-25 0 -49.5 3t-49.5 7q-27 6 -51 14.5t-49 20.5z" />
<glyph unicode="&#xfa;" horiz-adv-x="954" />
<glyph unicode="&#xfb;" horiz-adv-x="954" />
<glyph unicode="&#xfc;" horiz-adv-x="954" />
<glyph unicode="&#xfd;" />
<glyph unicode="&#xfe;" />
<glyph unicode="&#xff;" />
<glyph unicode="&#x152;" />
<glyph unicode="&#x153;" horiz-adv-x="1572" d="M59 240v7q0 3 2 7v6v6q23 211 167.5 261.5t453.5 50.5v3v3q0 106 -32 196t-173 90q-113 0 -176 -42t-63 -119l-132 2q0 141 111 210.5t242 69.5q123 0 194.5 -48t116.5 -146q43 98 119 146t178 48q168 0 283.5 -123t115.5 -358v-33h-653q0 -213 66.5 -295t201.5 -92 q98 0 168 73t80 161l137 2q-10 -143 -113.5 -237.5t-226.5 -111.5q-10 -2 -22 -3t-23 -1q-25 0 -53.5 5.5t-56.5 15.5q-74 23 -136.5 75t-78.5 124q-33 -82 -105.5 -133.5t-154.5 -71.5q-29 -6 -56.5 -10.5t-54.5 -4.5q-135 0 -219 70t-103 154q-2 10 -3 21.5t-1 21.5z M195 266q0 -96 62 -143t142 -47q12 0 26.5 1t27.5 3q35 6 67.5 19.5t59.5 33.5q43 35 66.5 91.5t23.5 146.5v19v22q-2 2 -2 4v4v19v18v2q-12 -2 -25.5 -1t-28.5 1q-4 0 -9 1t-11 1q-23 0 -44.5 1t-39.5 1q-127 0 -221 -39t-94 -158zM813 578v2h533q-12 141 -84 215.5 t-181 74.5q-14 0 -30.5 -2t-32.5 -6q-76 -23 -140.5 -94t-64.5 -190z" />
<glyph unicode="&#x178;" />
<glyph unicode="&#x2c6;" />
<glyph unicode="&#x2dc;" />
<glyph unicode="&#x2013;" />
<glyph unicode="&#x2014;" horiz-adv-x="954" />
<glyph unicode="&#x2018;" />
<glyph unicode="&#x2019;" />
<glyph unicode="&#x201a;" />
<glyph unicode="&#x201c;" horiz-adv-x="954" />
<glyph unicode="&#x201d;" horiz-adv-x="954" />
<glyph unicode="&#x201e;" />
<glyph unicode="&#x2022;" />
<glyph unicode="&#x2026;" />
<glyph unicode="&#x2039;" horiz-adv-x="1058" d="M186 506l205 366h107l-179 -366l164 -371h-92zM528 506l205 366h103l-177 -366l162 -371h-88z" />
<glyph unicode="&#x203a;" horiz-adv-x="954" />
<glyph unicode="&#x2122;" horiz-adv-x="509" d="M92 915v431h117v-431h-117zM297 915v431h117v-431h-117z" />
<glyph unicode="&#xe000;" horiz-adv-x="950" d="M0 950h950v-950h-950v950z" />
<glyph unicode="&#xfb01;" horiz-adv-x="1064" d="M23 842v106h190v207q0 127 66.5 175t146.5 48q10 0 20.5 -1t20.5 -1l47 -8q23 -4 39 -10v-101q-10 2 -22.5 6.5t-24.5 6.5q-10 2 -21.5 3t-19.5 1q-55 0 -95 -39t-40 -127v-160h223v-106h-223v-838h-117v838h-190zM760 1212v148h145v-148h-145zM774 4v944h117v-944h-117z " />
<glyph unicode="&#xfb02;" horiz-adv-x="1064" d="M23 842v106h190v207q0 127 66.5 175t146.5 48q10 0 20.5 -1t20.5 -1l47 -8q23 -4 39 -10v-101q-10 2 -22.5 6.5t-24.5 6.5q-10 2 -21.5 3t-19.5 1q-55 0 -95 -39t-40 -127v-160h223v-106h-223v-838h-117v838h-190zM774 4v1356h117v-1356h-117z" />
<glyph unicode="&#xfb03;" horiz-adv-x="1699" d="M23 842v106h190v207q0 127 66.5 175t146.5 48q10 0 20.5 -1t20.5 -1l47 -8q23 -4 39 -10v-101q-10 2 -22.5 6.5t-24.5 6.5q-10 2 -21.5 3t-19.5 1q-55 0 -95 -39t-40 -127v-160h223v-106h-223v-838h-117v838h-190zM657 842v106h191v207q0 127 66.5 175t146.5 48 q10 0 20.5 -1t20.5 -1l47 -8q23 -4 39 -10v-101q-10 2 -22.5 6.5t-24.5 6.5q-10 2 -21.5 3t-19.5 1q-55 0 -95 -39t-40 -127v-160h223v-106h-223v-838h-117v838h-191zM1395 1212v148h145v-148h-145zM1409 4v944h117v-944h-117z" />
<glyph unicode="&#xfb04;" horiz-adv-x="1699" d="M23 842v106h190v207q0 127 66.5 175t146.5 48q10 0 20.5 -1t20.5 -1l47 -8q23 -4 39 -10v-101q-10 2 -22.5 6.5t-24.5 6.5q-10 2 -21.5 3t-19.5 1q-55 0 -95 -39t-40 -127v-160h223v-106h-223v-838h-117v838h-190zM657 842v106h191v207q0 127 66.5 175t146.5 48 q10 0 20.5 -1t20.5 -1l47 -8q23 -4 39 -10v-101q-10 2 -22.5 6.5t-24.5 6.5q-10 2 -21.5 3t-19.5 1q-55 0 -95 -39t-40 -127v-160h223v-106h-223v-838h-117v838h-191zM1409 4v1356h117v-1356h-117z" />
</font>
</defs>
</svg>
